<svg xmlns="http://www.w3.org/2000/svg" width="512" height="512" viewBox="0 0 512 512">
  <defs>
    <linearGradient id="bg" x1="0" y1="0" x2="512" y2="512" gradientUnits="userSpaceOnUse">
      <stop offset="0%" stop-color="#2FB36A"/>
      <stop offset="100%" stop-color="#0A3D2B"/>
    </linearGradient>
    <linearGradient id="leaf" x1="0" y1="0" x2="1" y2="1">
      <stop offset="0%" stop-color="#A8F0C6" stop-opacity="0.95"/>
      <stop offset="100%" stop-color="#5DD68D" stop-opacity="0.6"/>
    </linearGradient>
  </defs>
  <rect width="512" height="512" rx="112" fill="url(#bg)"/>
  <path d="M154 374 C154 374 154 234 154 192 C154 154 180 128 218 128 L358 128 L358 180 L218 180 C210 180 202 186 202 196 L202 256 L320 256 L320 308 L202 308 L202 374 Z" fill="url(#leaf)" opacity="0.5"/>
  <path d="M166 366 C166 366 166 228 166 186 C166 150 190 128 226 128 L368 128 L368 180 L226 180 C216 180 214 190 214 196 L214 256 L332 256 L332 308 L214 308 L214 366 Z" fill="url(#leaf)" opacity="0.95"/>
</svg>
